<svg width="44" height="44" viewBox="0 0 44 44" fill="none" xmlns="http://www.w3.org/2000/svg">
<path d="M39.0243 26.158L25.8885 32.7818L24.7298 32.4408L25.6795 30.1162C26.5137 28.2553 25.6703 26.0718 23.8003 25.256L13.0442 20.57C12.4098 20.3152 11.7242 20.1667 11 20.1667C10.4665 20.1667 9.96234 20.2657 9.47467 20.4068L1.83334 22.1962V35.398L9.16667 33L24.1193 38.2323C24.6052 38.4028 25.1112 38.4872 25.6135 38.4872C26.3505 38.4872 27.0838 38.3075 27.7475 37.9518L41.1803 30.7707L39.0243 26.158ZM22.308 28.6715L22.2842 28.7283L21.3345 31.053L20.5058 33.0807L10.3767 29.5368L9.20517 29.128L8.02634 29.513L5.5 30.3417V25.1038L10.3107 23.9782L10.4042 23.9562L10.4958 23.9287C10.7158 23.8663 10.8845 23.8333 11 23.8333C11.209 23.8333 11.4235 23.8755 11.6398 23.9562L22.3337 28.6147L22.308 28.6715ZM31.1667 5.5C26.1048 5.5 22 9.60483 22 14.6667C22 19.7285 26.1048 23.8333 31.1667 23.8333C36.2285 23.8333 40.3333 19.7285 40.3333 14.6667C40.3333 9.60483 36.2285 5.5 31.1667 5.5ZM31.1667 20.1667C28.1288 20.1667 25.6667 17.7045 25.6667 14.6667C25.6667 11.6288 28.1288 9.16667 31.1667 9.16667C34.2045 9.16667 36.6667 11.6288 36.6667 14.6667C36.6667 17.7045 34.2045 20.1667 31.1667 20.1667Z" fill="#C35BC0"/>
<path d="M35 12.2329V13.263C35 13.3935 34.9041 13.5 34.7826 13.5H32.2V17.7671C32.2 17.8972 32.1041 18 31.9826 18H31.0173C30.8959 18 30.8 17.8972 30.8 17.7671V13.5H28.2212C28.0994 13.5 28 13.3935 28 13.263V12.2329C28 12.1065 28.0994 12 28.2212 12H34.7826C34.9041 12 35 12.1065 35 12.2329Z" fill="#C35BC0"/>
</svg>
