<svg width="48" height="48" viewBox="0 0 48 48" fill="none" xmlns="http://www.w3.org/2000/svg">
<path d="M40 13H37V7H40C41.6575 7 43 8.3425 43 10C43 11.6575 41.6575 13 40 13ZM7 7H10V13H7C5.3425 13 4 11.6575 4 10C4 8.3425 5.3425 7 7 7Z" fill="#C35BC0"/>
<path d="M19.5 10.5V19.5M37.5 9V36C37.5 37.6575 36.1575 39 34.5 39H13.5C11.8425 39 10.5 37.6575 10.5 36V9H37.5ZM30 28.5V34.5V28.5ZM30 19.5V25.5V19.5ZM30 10.5V16.5V10.5Z" stroke="#C35BC0" stroke-width="4" stroke-miterlimit="10"/>
<path d="M18 27H24V34.5H18V27Z" fill="#C35BC0"/>
</svg>
