<svg width="441" height="439" viewBox="0 0 441 439" fill="none" xmlns="http://www.w3.org/2000/svg">
<g filter="url(#filter0_d)">
<rect x="175.922" y="48.3811" width="332.302" height="208.803" rx="20" transform="rotate(45 175.922 48.3811)" fill="white"/>
</g>
<g filter="url(#filter1_d)">
<rect x="130.222" y="20" width="332.302" height="208.803" rx="20" transform="rotate(30.5784 130.222 20)" fill="#EDA7EB"/>
</g>
<g clip-path="url(#clip0)">
<g filter="url(#filter2_d)">
<rect x="81.4048" y="0.275146" width="333.636" height="210.03" rx="20" transform="rotate(14.6652 81.4048 0.275146)" fill="#C35BC0"/>
</g>
<path fill-rule="evenodd" clip-rule="evenodd" d="M90.9271 2.5821C90.5947 2.58012 90.5611 2.62909 90.75 2.84264C90.9059 3.01733 90.7988 3.00815 90.4314 2.81411C90.064 2.62007 89.9031 2.60539 89.9539 2.76971C90.002 2.92813 89.8803 2.93497 89.622 2.78858C89.3438 2.63265 89.2395 2.64576 89.2955 2.82957C89.3495 3.00507 89.2786 3.0287 89.095 2.89677C88.9383 2.78399 88.7835 2.79852 88.7492 2.92924C88.7148 3.05996 88.6105 3.08602 88.5166 2.98715C88.4232 2.88929 88.3194 2.9103 88.2865 3.03537C88.2536 3.16044 88.139 3.16999 88.0306 3.05698C87.9233 2.94337 87.667 2.98643 87.4619 3.15334C87.2577 3.31965 87.1111 3.37515 87.137 3.27671C87.1629 3.17827 86.993 3.23714 86.76 3.40796C86.5271 3.57878 86.435 3.59771 86.5557 3.45002C86.6765 3.30233 86.498 3.35806 86.1592 3.57354C85.8205 3.78903 85.6699 3.84692 85.825 3.70308C85.9795 3.55823 85.2658 3.94343 84.2391 4.5578C83.2116 5.17194 82.4003 5.72475 82.436 5.78589C82.4717 5.84703 82.293 6.0183 82.0382 6.16701C81.3922 6.54413 80.2221 8.25864 79.5473 9.8152C79.1628 10.7036 71.2288 40.6898 54.9951 102.605L31.0114 194.083L31.1813 195.566C31.6505 199.643 33.4258 202.554 36.7872 204.761C37.9248 205.507 341.036 285.488 340.887 285.003C340.85 284.879 341.168 284.93 341.637 285.123C342.276 285.386 342.43 285.391 342.356 285.149C342.293 284.943 342.328 284.91 342.463 285.051C342.746 285.349 343.963 285.368 343.873 285.072C343.825 284.917 343.949 284.926 344.218 285.096C344.466 285.252 344.609 285.27 344.569 285.138C344.531 285.016 344.883 284.843 345.349 284.755C346.756 284.488 348.447 283.73 349.755 282.779C350.437 282.283 351.058 281.917 351.137 281.963C351.215 282.011 351.701 281.503 352.216 280.835L353.153 279.622L377.646 186.431L402.14 93.2402L401.927 91.8144C401.398 88.2573 399.838 85.7132 397.135 83.9944L395.5 82.9547L243.862 43.0243C160.461 21.0616 92.3473 3.05371 92.4981 3.00534C92.7957 2.91017 91.5947 2.58589 90.9271 2.5821ZM111.817 26.1693L113.998 26.7424L113.422 28.9323L112.846 31.1223L113.973 33.0375L115.1 34.9529L113.18 36.083L111.259 37.213L110.641 39.3322L110.023 41.4514L107.812 40.9049L105.602 40.3584L103.821 41.4854L102.039 42.6121L100.935 40.7537L99.8306 38.895L97.6098 38.25L95.3889 37.6051L95.9381 35.3841L96.4866 33.1628L95.3937 31.2754L94.2999 29.3877L96.157 28.2954L98.0144 27.2024L98.5872 25.0229L99.1602 22.8426L101.35 23.4182L103.54 23.9938L105.456 22.8668L107.371 21.7407L108.504 23.6681L109.636 25.5961L111.817 26.1693ZM106.129 24.0222C105.869 24.1927 105.69 24.3475 105.733 24.3675C107.075 24.9721 107.868 24.8914 107.331 24.206C106.936 23.702 106.68 23.6631 106.129 24.0222ZM100.159 24.5535C99.9152 24.6965 99.6528 25.7964 99.8505 25.8484C100.048 25.9003 101.392 25.0994 101.445 24.8977C101.493 24.7169 100.386 24.4209 100.159 24.5535ZM101.602 26.6745L99.3349 27.9644L98.6622 30.5239L97.9897 33.0826L99.2316 35.1973L100.473 37.3109L103.108 38.0036L105.745 38.6965L107.883 37.3901L110.022 36.0828L110.668 33.6258L111.313 31.1696L109.993 28.9074L108.673 26.6463L106.271 26.0149L103.868 25.3836L101.602 26.6745ZM111.254 28.0856C111.531 28.5767 111.785 28.9851 111.819 28.994C111.852 29.0029 111.965 28.6908 112.068 28.2994C112.248 27.6144 112.226 27.5803 111.503 27.3903L110.752 27.1928L111.254 28.0856ZM300.29 79.3716L299.87 80.9717L300.882 81.386C306.091 83.5214 303.858 91.2019 298.441 89.7782L297.63 89.5651L297.183 91.0228L296.736 92.4813L295.552 92.2347L294.366 91.9888L294.77 90.454L295.173 88.9193L294.299 88.6894C292.987 88.3446 291.647 87.0764 291.305 85.8546C290.323 82.3451 293.317 79.3055 296.844 80.2325L297.417 80.383L297.844 78.7571L298.271 77.1312L299.492 77.4519L300.711 77.7723L300.29 79.3716ZM107.317 31.3847C107.99 33.8864 108.514 36.0283 108.483 36.1461C108.446 36.2897 106.882 35.9538 103.739 35.1277C99.3367 33.9706 99.0594 33.8736 99.2108 33.5467C99.4909 32.9406 105.604 26.7093 105.854 26.7751C105.986 26.8096 106.644 28.8839 107.317 31.3847ZM251.938 67.0176L251.45 68.3014L252.567 68.5949L253.683 68.8882L254.187 67.6629L254.691 66.4368L255.601 66.6078L256.511 66.7789L256.023 68.0766L255.536 69.3754L256.558 69.6439L257.58 69.9126L257.34 70.8268L257.099 71.7419L255.99 71.4505L254.882 71.1591L254.561 71.89C253.796 73.6367 253.769 73.4745 254.86 73.7612L255.848 74.0208L255.608 74.935L255.367 75.8501L254.27 75.5616L253.172 75.273L252.71 76.4551L252.247 77.637L251.333 77.3967L250.418 77.1562L250.881 75.9743L251.342 74.7922L250.23 74.4997C249.019 74.1816 248.808 74.3521 248.376 75.995C248.229 76.5541 248.182 76.5685 247.282 76.3319L246.341 76.0846L246.799 74.9016L247.258 73.7186L246.231 73.4489L245.205 73.1791L245.446 72.2641L245.686 71.3499L246.799 71.6425C248.02 71.9634 247.951 72.0126 248.641 70.3339L248.944 69.5984L247.94 69.3345L246.936 69.0707L247.177 68.1557L247.417 67.2414L248.512 67.5292L249.606 67.8168L250.058 66.6866C250.634 65.2496 250.622 65.2586 251.603 65.5165L252.428 65.7332L251.938 67.0176ZM104.712 29.2233C101.858 32.1169 101.066 32.9551 101.02 33.1286C100.993 33.2327 102.44 33.7002 104.325 34.1956C106.258 34.7037 107.7 34.9963 107.728 34.8874C107.783 34.6784 106.202 28.6056 106.003 28.259C105.934 28.14 105.353 28.5739 104.712 29.2233ZM157.14 42.506C157.148 42.5245 157.113 42.9278 157.064 43.4022L156.972 44.265L155.931 43.8973C154.656 43.4465 154.032 43.7372 153.719 44.9282C153.383 46.2064 154.226 46.9697 155.834 46.8428L156.533 46.7885L157.089 44.6744L157.645 42.5595L159.975 43.172C162.292 43.7808 162.308 43.7895 162.858 44.6042L163.41 45.4239L163.576 44.7929L163.742 44.1619L166.181 44.8031L168.62 45.4442L168.409 46.2487L168.198 47.0523L166.826 46.7556C164.986 46.3584 164.612 46.7811 166.389 47.2481L167.626 47.5732L167.415 48.3761L167.204 49.179L166.019 48.933C164.069 48.5277 164.222 49.1777 166.198 49.6971L167.722 50.0977L168.382 47.8262L169.04 45.5545L170.974 46.0628C173.18 46.6427 173.832 47.0927 174.186 48.2761L174.412 49.0306L174.666 48.0658L174.921 47.1001L179.189 48.222L183.457 49.3437L183.243 50.1571C183.03 50.9688 183.029 50.9702 182.223 50.7586L181.417 50.5467L180.759 52.8176L180.1 55.0891L178.982 54.7954L177.865 54.5016L178.408 52.1996L178.951 49.8986L177.84 49.6066L176.729 49.3145L176.115 51.6513L175.5 53.9889L174.383 53.6952L173.265 53.4012L173.517 52.436L173.77 51.4699L173.184 52.0351C172.187 52.9939 171.576 52.9576 166.564 51.6401L162.086 50.4631L162.54 48.7355C163.003 46.9716 162.998 46.8408 162.473 47.0953C162.308 47.1761 161.988 47.3121 161.764 47.398C161.385 47.5442 161.368 47.6484 161.532 48.8614C161.732 50.3493 161.65 50.4184 160.245 49.9386L159.379 49.6431L159.332 48.0011C159.273 45.8944 159.293 45.8177 159.885 45.9734C160.495 46.1337 160.811 45.87 160.588 45.3877C160.009 44.1461 159.482 44.6607 158.844 47.0903L158.234 49.4077L155.648 48.7322C152.165 47.8227 151.48 47.2527 151.319 45.1306C151.251 44.2321 151.215 44.1803 150.774 44.3551C150.265 44.557 150.278 44.412 150.521 47.1639C150.541 47.3855 150.271 47.3655 149.374 47.0796L148.201 46.7051L148.154 45.0632C148.097 43.0866 148.142 42.8042 148.478 43.0461C148.934 43.3737 149.644 42.9557 149.425 42.4876C148.828 41.2039 148.309 41.6991 147.658 44.1771L147.043 46.5188L143.348 45.4889L139.653 44.4583L140.197 42.1565L140.74 39.8555L139.832 39.6169L138.925 39.3783L138.311 41.7151L137.696 44.0527L136.578 43.7588L135.46 43.465L136.075 41.1274L136.689 38.7906L135.672 38.5234L134.656 38.2564L134.042 40.5932L133.428 42.9308L132.154 42.5961L130.882 42.2617L130.485 40.4735L130.089 38.6855L129.615 40.2475L129.141 41.8085L124.021 40.4464C117.196 38.631 116.342 37.9604 117.276 35.1515C117.957 33.103 119.384 32.4516 121.657 33.1506L122.963 33.5527L122.804 34.4088L122.644 35.2657L121.796 34.9376C120.651 34.496 119.68 34.886 119.414 35.8954C119.074 37.1889 120.009 38.0005 121.688 37.8681L122.387 37.8136L122.942 35.6995L123.498 33.5846L125.937 34.2257L128.377 34.8669L128.165 35.6713L127.954 36.475L126.566 36.174C124.694 35.7684 124.403 36.287 126.182 36.8548L127.347 37.2264L127.086 37.9619L126.827 38.6968L125.703 38.4222C124.884 38.2225 124.56 38.2253 124.505 38.4335C124.447 38.6546 124.792 38.8141 126.031 39.1399L127.631 39.5604L128.196 37.2641L128.761 34.9678L130.084 35.3156L131.407 35.6634L131.771 37.5524L132.134 39.4404L132.592 37.7683L133.051 36.0954L139.656 37.8315L146.263 39.5678L146.049 40.3812L145.835 41.1946L144.412 40.8207C142.532 40.3263 142.17 40.8238 143.987 41.4042L145.14 41.7718L145.004 42.5402L144.87 43.308L143.673 43.059C141.731 42.6554 141.874 43.2806 143.845 43.8054L145.368 44.2111L145.738 42.9014C145.942 42.1812 146.235 41.1607 146.389 40.6336L146.669 39.6747L148.712 40.2115C150.962 40.803 151.657 41.2463 151.82 42.1904L151.918 42.7588L152.822 42.2658C153.95 41.6513 156.823 41.8111 157.14 42.506ZM106.669 31.8053C107.379 34.6308 107.606 34.4326 104.633 33.577L102.189 32.8733L103.995 31.0121C104.989 29.9887 105.862 29.2159 105.937 29.2951C106.012 29.3735 106.342 30.503 106.669 31.8053ZM288.955 78.6748C290.039 79.6232 290.51 81.1702 290.164 82.6468L289.909 83.7332L286.708 82.8917C283.274 81.9893 283.19 81.9966 283.856 83.1368C284.368 84.0134 285.942 84.5718 287.135 84.2999C287.984 84.1071 289.124 85.5783 288.483 86.0394C286.317 87.5991 281.723 85.5705 281.116 82.7849C280.145 78.3356 285.412 75.574 288.955 78.6748ZM323.796 87.6881C325.227 88.7484 325.83 91.1557 325.086 92.8417C322.84 97.9303 314.523 95.1937 315.94 89.8331C316.549 87.5294 318.179 86.4302 320.911 86.4805C321.55 86.493 323.005 87.1015 323.796 87.6881ZM343.589 92.6015C345.382 93.6991 346.102 95.3426 345.641 97.2867L345.396 98.317L342.118 97.564L338.839 96.811L339.31 97.6413C339.866 98.6189 341.666 99.2801 342.717 98.892C343.441 98.6243 344.574 100.188 343.971 100.623C343.325 101.089 341.717 101.185 340.371 100.84C334.13 99.2379 336.063 90.8331 342.401 92.0141C342.582 92.0479 343.117 92.3117 343.589 92.6015ZM362.711 98.0507C365.319 100.334 364.168 104.754 360.744 105.597C357.194 106.47 353.766 103.352 354.621 100.028C355.5 96.6127 359.851 95.5489 362.711 98.0507ZM382.739 103.18C385.715 105.385 384.289 110.563 380.573 111.037C376.905 111.507 374.082 108.638 374.953 105.325C375.844 101.933 379.643 100.887 382.739 103.18ZM262.121 72.7356C262.352 73.6331 262.672 74.8655 262.834 75.4747L263.128 76.583L265.18 74.5189L267.233 72.455L268.402 72.7597L269.571 73.0643L268.449 77.3329L267.328 81.6006L266.21 81.3069L265.093 81.0131L265.744 78.5232L266.397 76.0324L264.609 77.7899C262.241 80.1169 261.967 80.0804 261.237 77.3367C260.403 74.2017 260.468 74.2189 259.752 76.943L259.123 79.3355L257.939 79.0897L256.754 78.8429L257.88 74.5558L259.007 70.2679L260.355 70.6859L261.701 71.1046L262.121 72.7356ZM274.023 75.9725L273.595 77.5984L275.424 78.0792L277.254 78.56L277.684 76.9244L278.113 75.2888L279.343 75.6766L280.573 76.0645L279.466 80.2284L278.36 84.3915L277.11 84.1277L275.86 83.8638L276.276 82.279L276.693 80.6943L274.904 80.2647L273.116 79.8344L272.652 81.3567L272.189 82.8784L270.978 82.56L269.767 82.2417L270.889 77.974L272.011 73.7055L273.23 74.0259L274.45 74.3466L274.023 75.9725ZM308.401 85.8952L307.814 88.3648L310.461 86.4366L313.11 84.5078L314.309 84.8227L315.506 85.1375L314.384 89.406L313.262 93.6737L311.948 93.3282L310.633 92.9826L311.209 90.5607L311.784 88.1378L309.224 90.026L306.663 91.9134L305.492 91.6184L304.319 91.3232L305.441 87.0555L306.563 82.787L307.777 83.106L308.989 83.4247L308.401 85.8952ZM334.983 94.82L333.919 98.9943L332.633 98.721L331.346 98.4475L332.204 95.186L333.061 91.9245L331.769 91.585L330.477 91.2454L329.865 93.0219C328.581 96.7415 327.44 97.7114 325.323 96.8826C324.35 96.5007 324.753 94.6596 325.796 94.7215C326.722 94.777 327.077 94.2387 327.886 91.5485C328.286 90.2157 328.682 89.0188 328.764 88.8887C328.879 88.7059 329.732 88.8799 332.48 89.648L336.046 90.6449L334.983 94.82ZM355.279 96.6773L355.012 97.694L353.589 97.3201L352.167 96.9462L351.312 100.198L350.457 103.45L349.238 103.129L348.018 102.809L348.871 99.5657L349.723 96.3228L348.265 95.8758L346.808 95.4289L346.921 94.7314C347.136 93.4146 347.011 93.418 351.475 94.5914L355.546 95.6614L355.279 96.6773ZM373.028 100.661C374.382 101.764 374.365 103.305 372.99 104.148C372.297 104.572 372.291 104.586 372.676 104.83C373.24 105.187 373.447 106.363 373.089 107.17C372.392 108.742 371.206 108.892 367.379 107.893L364.482 107.136L365.603 102.868L366.725 98.5995L369.519 99.3382C371.78 99.9367 372.449 100.188 373.028 100.661ZM104.835 31.5046L104.016 32.3752L105.248 32.6991C106.68 33.0755 106.617 33.1367 106.214 31.7669C105.824 30.443 105.834 30.4447 104.835 31.5046ZM170.234 49.2232L169.883 50.557L170.498 50.7186C171.787 51.0573 172.476 48.5884 171.222 48.1243L170.585 47.8893L170.234 49.2232ZM96.6729 29.5395C96.1169 29.9023 96.0639 30.1334 96.4138 30.6696C96.8374 31.3193 96.9472 31.2627 97.2104 30.2613C97.4712 29.2688 97.3456 29.1004 96.6729 29.5395ZM112.074 34.0594C111.836 34.9672 111.98 35.1085 112.679 34.6523C113.138 34.3535 113.145 34.3253 112.893 33.8398C112.508 33.0985 112.313 33.1508 112.074 34.0594ZM250.641 70.3161C250.561 70.4445 250.33 70.9703 250.128 71.4847L249.758 72.4202L250.879 72.7148C252.106 73.0374 252.089 73.0475 252.658 71.6062L253.026 70.6713L251.906 70.3769C251.187 70.1879 250.734 70.1663 250.641 70.3161ZM284.696 79.6639C283.661 80.3949 283.738 80.4816 285.94 81.0604C288.181 81.6495 288.34 81.5893 287.65 80.4065C287.011 79.3121 285.673 78.9758 284.696 79.6639ZM296.089 82.2304C293.698 82.0988 292.648 85.4003 294.685 86.6439C295.669 87.2448 295.621 87.3058 296.26 84.6078L296.812 82.2695L296.089 82.2304ZM298.729 85.3137C298.023 87.9982 298.035 88.0358 299.503 87.7593C301.687 87.348 302.086 84.4036 300.108 83.3083L299.364 82.8962L298.729 85.3137ZM340.26 94.2342C339.077 94.9248 339.185 95.055 341.427 95.6443C343.63 96.2231 343.739 96.1856 343.196 95.0395C342.685 93.9606 341.354 93.5953 340.26 94.2342ZM368.382 101.899L368.181 102.755L369.493 103.042C372.13 103.622 372.524 102.079 369.913 101.393L368.582 101.043L368.382 101.899ZM319.945 88.7119C318.922 88.9958 318.158 90.5446 318.435 91.7785C318.795 93.387 320.985 93.9626 322.089 92.7388C323.728 90.9225 322.216 88.0819 319.945 88.7119ZM358.22 99.2056C357.194 99.9296 356.83 101.442 357.433 102.475C358.588 104.452 361.423 103.563 361.566 101.179C361.67 99.4224 359.624 98.2151 358.22 99.2056ZM378.887 104.204C377.451 104.602 376.782 107.252 377.864 108.257C379.234 109.529 381.067 108.935 381.559 107.062C382.051 105.191 380.667 103.711 378.887 104.204ZM367.842 104.216C367.834 104.214 367.709 104.597 367.564 105.067L367.3 105.922L368.748 106.302C370.327 106.716 370.796 106.593 370.896 105.738C370.948 105.29 369.856 104.746 367.842 104.216ZM108.423 38.8578L107.547 39.3876L108.298 39.585C109.021 39.7751 109.056 39.7559 109.236 39.0716C109.339 38.6803 109.395 38.3525 109.361 38.3436C109.327 38.3347 108.905 38.5662 108.423 38.8578ZM97.2423 36.0805C97.1295 36.7789 97.4707 37.1283 98.1894 37.0489C98.4895 37.0165 98.4795 36.8871 98.1284 36.2539C97.5888 35.2839 97.378 35.2423 97.2423 36.0805ZM101.731 39.5436C101.598 40.1515 102.483 40.629 103.066 40.2637L103.664 39.8889L102.715 39.6392C102.192 39.5018 101.749 39.4588 101.731 39.5436ZM137.688 85.5024C138.669 86.3548 139.546 87.7947 139.85 89.0546C140.205 90.5283 134.567 111.942 133.529 113.06C132.504 114.164 131.662 114.677 130.306 115.021L129.064 115.337L114.226 111.438L99.3896 107.538L98.5395 106.778C97.5412 105.886 96.7401 104.438 96.5142 103.118C96.3176 101.965 101.635 81.1663 102.435 79.9601C103.034 79.0557 104.33 77.9807 105.234 77.6393C107.241 76.8799 106.911 76.8156 122.557 80.9829L136.873 84.7958L137.688 85.5024ZM89.851 77.334C90.57 78.0018 91.1318 82.3825 90.8795 85.3579C90.3295 91.8617 85.4394 100.66 83.0923 99.3693C82.1684 98.8608 82.3127 98.187 83.7028 96.5217C87.5658 91.8902 89.1983 85.6691 88.1101 79.7267C87.7604 77.818 87.7859 77.6651 88.5403 77.1448C88.9958 76.8298 89.3657 76.883 89.851 77.334ZM85.2059 78.846C85.6302 79.6408 85.9893 82.6035 85.8958 84.538C85.6418 89.8205 81.4954 97.1579 79.4123 96.0117C78.5267 95.5245 78.5674 94.7363 79.5345 93.6465C82.8074 89.9571 84.1089 85.176 83.1113 80.5039C82.6144 78.177 84.1843 76.9333 85.2059 78.846ZM80.2054 79.8428C82.2511 83.7275 78.9226 93.5754 75.8386 92.7648C74.7307 92.4736 74.811 91.4854 76.0615 89.9965C78.02 87.6654 78.7994 84.7095 78.2357 81.7508C77.7871 79.3944 79.2316 77.9944 80.2054 79.8428ZM75.5091 80.7815C76.817 82.4813 76.0657 86.8136 74.1278 88.7447C72.0661 90.7993 70.5718 89.1066 72.4503 86.8433C73.507 85.57 73.8687 84.1969 73.544 82.6916C73.094 80.6065 74.3979 79.3378 75.5091 80.7815ZM345.827 284.843C345.267 284.971 344.883 285.154 344.974 285.249C345.064 285.345 345.614 285.26 346.197 285.061C347.454 284.632 347.256 284.516 345.827 284.843Z" fill="#C35BC0"/>
<path fill-rule="evenodd" clip-rule="evenodd" d="M92.4983 3.00449C92.3475 3.05286 160.461 21.0623 243.862 43.0251L395.5 82.9571L396.889 83.8339C398.657 84.9508 398.799 84.8785 397.225 83.6641L395.997 82.7171L244.385 42.8165C160.998 20.8721 92.649 2.95611 92.4983 3.00449ZM105.455 22.8668L103.54 23.9938L101.35 23.4182L99.1602 22.8426L98.5872 25.0229L98.0143 27.2023L96.157 28.2954L94.2999 29.3876L95.3936 31.2753L96.4866 33.1628L95.9381 35.384L95.3889 37.605L97.6097 38.25L99.8306 38.895L100.935 40.7536L102.039 42.6121L103.821 41.4853L105.602 40.3583L107.812 40.9048L110.023 41.4513L110.641 39.3321L111.259 37.2129L113.18 36.083L115.1 34.9528L113.973 33.0374L112.846 31.1222L113.422 28.9323L113.998 26.7423L111.817 26.1693L109.636 25.596L108.504 23.668L107.371 21.7406L105.455 22.8668ZM107.331 24.206C107.868 24.8914 107.075 24.9721 105.733 24.3674C105.56 24.2893 106.619 23.717 106.825 23.7771C106.947 23.8134 107.174 24.006 107.331 24.206ZM101.445 24.8976C101.392 25.0993 100.048 25.9003 99.8505 25.8483C99.6528 25.7964 99.9152 24.6964 100.159 24.5535C100.386 24.4208 101.493 24.7169 101.445 24.8976ZM109.993 28.9074L111.313 31.1695L110.668 33.6257L110.022 36.0828L107.883 37.39L105.744 38.6964L103.108 38.0035L100.473 37.3109L99.2316 35.1972L97.9897 33.0825L98.6622 30.5238L99.3349 27.9643L101.602 26.6744L103.868 25.3835L106.271 26.0149L108.673 26.6462L109.993 28.9074ZM112.068 28.2994C111.965 28.6907 111.852 29.0028 111.819 28.9939C111.785 28.985 111.531 28.5766 111.254 28.0856L110.752 27.1928L111.503 27.3902C112.226 27.5803 112.248 27.6143 112.068 28.2994ZM297.844 78.7571L297.417 80.383L296.844 80.2324C293.317 79.3054 290.323 82.3451 291.305 85.8546C291.647 87.0764 292.987 88.3445 294.299 88.6894L295.173 88.9193L294.77 90.454L294.366 91.9887L295.552 92.2347L296.736 92.4813L297.183 91.0228L297.63 89.565L298.441 89.7782C303.858 91.2019 306.091 83.5213 300.882 81.386L299.87 80.9717L300.29 79.3716L300.711 77.7723L299.492 77.4518L298.272 77.1312L297.844 78.7571ZM102.494 29.9548C100.776 31.7386 99.2991 33.3551 99.2108 33.5467C99.0594 33.8735 99.3366 33.9705 103.739 35.1276C106.882 35.9537 108.446 36.2896 108.483 36.146C108.59 35.7401 106.092 26.8376 105.854 26.775C105.723 26.7404 104.211 28.171 102.494 29.9548ZM250.645 65.4276C250.572 65.4982 250.307 66.0644 250.058 66.6866L249.606 67.8168L248.512 67.5292L247.417 67.2414L247.177 68.1556L246.936 69.0706L247.94 69.3345L248.944 69.5983L248.641 70.3339C247.951 72.0125 248.02 71.9634 246.799 71.6425L245.686 71.3498L245.446 72.264L245.205 73.1791L246.231 73.4488L247.258 73.7186L246.799 74.9016L246.341 76.0845L247.282 76.3318C248.182 76.5685 248.229 76.5541 248.376 75.9949C248.808 74.352 249.019 74.1816 250.23 74.4997L251.342 74.7922L250.881 75.9743L250.418 77.1562L251.333 77.3967L252.247 77.637L252.71 76.4551L253.172 75.2729L254.27 75.5616L255.367 75.85L255.608 74.935L255.848 74.0208L254.86 73.7612C253.769 73.4744 253.796 73.6366 254.561 71.8899L254.882 71.159L255.99 71.4504L257.099 71.7418L257.34 70.8268L257.58 69.9126L256.558 69.6439L255.536 69.3754L256.023 68.0766L256.511 66.7788L255.601 66.6078L254.691 66.4368L254.187 67.6629L253.683 68.8882L252.567 68.5949L251.45 68.3014L251.938 67.0176L252.428 65.7332L251.603 65.5165C251.15 65.3973 250.718 65.3573 250.645 65.4276ZM106.953 31.5875C107.407 33.2983 107.756 34.7832 107.728 34.8873C107.7 34.9962 106.258 34.7037 104.325 34.1955C102.44 33.7001 100.993 33.2326 101.02 33.1285C101.066 32.955 101.858 32.1169 104.712 29.2232C105.353 28.5739 105.934 28.1399 106.003 28.2589C106.072 28.3789 106.499 29.8767 106.953 31.5875ZM154.641 41.801C154.108 41.7843 153.351 41.9777 152.822 42.2658L151.918 42.7588L151.82 42.1904C151.657 41.2462 150.962 40.803 148.712 40.2115L146.669 39.6747L146.389 40.6336C146.235 41.1607 145.942 42.1811 145.738 42.9013L145.368 44.211L143.845 43.8053C141.874 43.2806 141.731 42.6553 143.673 43.059L144.87 43.3079L145.004 42.5402L145.14 41.7718L143.987 41.4042C142.17 40.8238 142.532 40.3263 144.412 40.8206L145.835 41.1945L146.049 40.3812L146.263 39.5678L139.656 37.8315L133.051 36.0954L132.592 37.7683L132.134 39.4404L131.771 37.5524L131.407 35.6634L130.084 35.3156L128.761 34.9678L128.196 37.2641L127.631 39.5604L126.031 39.1398C124.792 38.8141 124.447 38.6545 124.505 38.4334C124.56 38.2252 124.884 38.2225 125.703 38.4221L126.827 38.6967L127.086 37.9618L127.347 37.2263L126.182 36.8547C124.403 36.2869 124.694 35.7683 126.566 36.1739L127.954 36.475L128.165 35.6713L128.377 34.8668L125.937 34.2257L123.498 33.5846L122.942 35.6995L122.387 37.8136L121.688 37.8681C120.009 38.0004 119.074 37.1888 119.414 35.8954C119.68 34.8859 120.651 34.4959 121.796 34.9375L122.644 35.2656L122.804 34.4087L122.963 33.5526L121.657 33.1506C119.384 32.4516 117.957 33.103 117.276 35.1514C116.341 37.9603 117.196 38.6309 124.021 40.4464L129.141 41.8084L129.615 40.2474L130.089 38.6854L130.485 40.4734L130.882 42.2616L132.154 42.5961L133.428 42.9307L134.042 40.5931L134.656 38.2563L135.672 38.5234L136.689 38.7906L136.075 41.1274L135.46 43.465L136.578 43.7587L137.696 44.0527L138.311 41.715L138.925 39.3783L139.832 39.6168L140.74 39.8554L140.197 42.1565L139.653 44.4583L143.348 45.4889L147.043 46.5187L147.658 44.1771C148.309 41.6991 148.828 41.2038 149.425 42.4876C149.644 42.9556 148.934 43.3737 148.478 43.046C148.142 42.8042 148.097 43.0865 148.154 45.0631L148.201 46.7051L149.374 47.0796C150.271 47.3654 150.541 47.3855 150.521 47.1638C150.278 44.412 150.265 44.5569 150.774 44.355C151.215 44.1802 151.251 44.2321 151.319 45.1306C151.48 47.2527 152.165 47.8227 155.648 48.7322L158.234 49.4077L158.844 47.0902C159.482 44.6606 160.009 44.1461 160.588 45.3877C160.811 45.87 160.495 46.1337 159.885 45.9734C159.293 45.8177 159.273 45.8944 159.332 48.0011L159.379 49.643L160.245 49.9386C161.65 50.4183 161.732 50.3493 161.532 48.8613C161.368 47.6484 161.385 47.5442 161.764 47.398C161.988 47.312 162.308 47.1761 162.473 47.0953C162.998 46.8408 163.003 46.9715 162.54 48.7354L162.086 50.463L166.564 51.6401C171.576 52.9575 172.187 52.9938 173.184 52.0351L173.77 51.4698L173.517 52.4359L173.265 53.4012L174.383 53.6951L175.5 53.9889L176.115 51.6513L176.729 49.3145L177.84 49.6065L178.951 49.8985L178.408 52.1996L177.865 54.5016L178.982 54.7953L180.1 55.0891L180.759 52.8176L181.417 50.5467L182.223 50.7585C183.029 50.9702 183.03 50.9688 183.243 50.157L183.457 49.3437L179.189 48.222L174.921 47.1001L174.666 48.0657L174.412 49.0306L174.186 48.2761C173.832 47.0926 173.18 46.6426 170.974 46.0628L169.04 45.5544L168.382 47.8261L167.722 50.0976L166.198 49.697C164.222 49.1776 164.069 48.5276 166.019 48.9329L167.204 49.1789L167.415 48.3761L167.626 47.5732L166.389 47.2481C164.612 46.7811 164.986 46.3584 166.826 46.7555L168.198 47.0523L168.409 46.2486L168.62 45.4441L166.181 44.803L163.742 44.1619L163.576 44.7929L163.41 45.4239L162.858 44.6041C162.308 43.7895 162.292 43.7808 159.975 43.1719L157.645 42.5594L157.089 44.6743L156.533 46.7884L155.834 46.8427C154.226 46.9697 153.383 46.2063 153.719 44.9282C154.032 43.7372 154.656 43.4464 155.931 43.8972L156.972 44.2649L157.064 43.4021C157.113 42.9278 157.148 42.5245 157.14 42.506C157.047 42.3031 155.349 41.8239 154.641 41.801ZM103.995 31.012L102.189 32.8733L104.633 33.577C105.977 33.9639 107.119 34.2563 107.171 34.2257C107.289 34.1567 106.121 29.4883 105.937 29.295C105.862 29.2158 104.989 29.9887 103.995 31.012ZM285.837 77.3212C281.243 77.0809 279.256 82.7584 282.979 85.4864C284.328 86.475 287.443 86.7876 288.483 86.0394C289.124 85.5782 287.984 84.1071 287.136 84.2998C285.942 84.5718 284.368 84.0133 283.856 83.1368C283.19 81.9966 283.274 81.9893 286.708 82.8917L289.909 83.7332L290.164 82.6467C290.778 80.0287 288.699 77.4696 285.837 77.3212ZM320.911 86.4805C314.247 86.3567 313.942 94.9987 320.591 95.5525C324.005 95.8372 326.457 92.2651 324.964 89.1831C324.302 87.815 322.34 86.5076 320.911 86.4805ZM341.641 91.9375C335.624 91.72 334.538 99.3423 340.372 100.84C341.717 101.185 343.325 101.089 343.971 100.623C344.574 100.188 343.441 98.6243 342.717 98.892C341.666 99.28 339.866 98.6189 339.31 97.6412L338.839 96.8109L342.118 97.5639L345.396 98.317L345.641 97.2866C346.258 94.6832 344.276 92.0324 341.641 91.9375ZM359.412 96.661C355.682 96.456 353.233 100.353 355.163 103.426C356.245 105.15 358.692 106.102 360.744 105.597C365.917 104.323 364.819 96.959 359.412 96.661ZM379.271 101.975C374.86 102.034 373.075 107.534 376.628 110.118C378.193 111.256 380.925 111.337 382.437 110.289C386.223 107.666 384.032 101.91 379.271 101.975ZM257.88 74.5558L256.754 78.8429L257.939 79.0897L259.123 79.3354L259.752 76.943C260.468 74.2188 260.403 74.2017 261.237 77.3366C261.967 80.0804 262.241 80.1169 264.609 77.7899L266.397 76.0324L265.744 78.5231L265.093 81.0131L266.21 81.3068L267.328 81.6006L268.449 77.3328L269.571 73.0643L268.402 72.7596L267.233 72.455L265.18 74.5188L263.128 76.5829L262.834 75.4747C262.672 74.8654 262.352 73.633 262.121 72.7356L261.702 71.1045L260.355 70.6858L259.007 70.2679L257.88 74.5558ZM270.889 77.9739L269.767 82.2417L270.978 82.56L272.189 82.8783L272.652 81.3567L273.116 79.8344L274.904 80.2647L276.693 80.6942L276.276 82.279L275.86 83.8637L277.11 84.1277L278.36 84.3915L279.466 80.2284L280.573 76.0645L279.343 75.6765L278.114 75.2887L277.684 76.9243L277.254 78.5599L275.424 78.0792L273.595 77.5984L274.023 75.9725L274.45 74.3465L273.23 74.0259L272.011 73.7054L270.889 77.9739ZM305.441 87.0555L304.32 91.3232L305.492 91.6184L306.663 91.9134L309.224 90.026L311.784 88.1378L311.209 90.5607L310.633 92.9825L311.948 93.3282L313.262 93.6737L314.384 89.406L315.506 85.1374L314.309 84.8227L313.11 84.5078L310.461 86.4366L307.814 88.3648L308.401 85.8951L308.989 83.4247L307.777 83.1059L306.563 82.7869L305.441 87.0555ZM328.764 88.8887C328.682 89.0188 328.286 90.2157 327.886 91.5485C327.077 94.2387 326.722 94.777 325.796 94.7215C324.753 94.6596 324.35 96.5007 325.323 96.8825C327.44 97.7114 328.581 96.7414 329.865 93.0218L330.477 91.2454L331.769 91.5849L333.061 91.9245L332.204 95.186L331.347 98.4475L332.633 98.721L333.919 98.9943L334.983 94.82L336.047 90.6448L332.48 89.648C329.732 88.8799 328.879 88.7059 328.764 88.8887ZM347.219 93.778C347.118 93.9189 346.984 94.3485 346.921 94.7314L346.808 95.4288L348.265 95.8758L349.723 96.3228L348.871 99.5657L348.018 102.809L349.238 103.129L350.458 103.45L351.312 100.198L352.167 96.9461L353.59 97.32L355.012 97.6939L355.279 96.6772L355.546 95.6613L351.475 94.5914C348.166 93.7216 347.37 93.5692 347.219 93.778ZM365.603 102.868L364.482 107.136L367.379 107.893C371.206 108.892 372.392 108.742 373.09 107.17C373.448 106.363 373.24 105.187 372.676 104.83C372.291 104.586 372.297 104.572 372.99 104.148C373.522 103.822 373.751 103.51 373.913 102.894C374.367 101.168 373.363 100.355 369.519 99.3382L366.725 98.5995L365.603 102.868ZM106.214 31.7668C106.617 33.1366 106.68 33.0755 105.248 32.699L104.016 32.3752L104.835 31.5046C105.834 30.4447 105.824 30.4429 106.214 31.7668ZM171.839 49.1257C171.809 50.278 171.268 50.9208 170.498 50.7185L169.883 50.5569L170.234 49.2231L170.585 47.8893L171.222 48.1242C171.77 48.3269 171.857 48.467 171.839 49.1257ZM97.2103 30.2613C96.9472 31.2627 96.8374 31.3192 96.4138 30.6696C96.0639 30.1333 96.1168 29.9023 96.6729 29.5395C97.3455 29.1003 97.4712 29.2688 97.2103 30.2613ZM112.893 33.8397C113.145 34.3252 113.138 34.3534 112.679 34.6523C111.98 35.1085 111.836 34.9671 112.074 34.0594C112.313 33.1508 112.508 33.0985 112.893 33.8397ZM252.658 71.6062C252.089 73.0474 252.106 73.0373 250.879 72.7148L249.758 72.4202L250.128 71.4846C250.695 70.0432 250.679 70.0543 251.906 70.3769L253.026 70.6712L252.658 71.6062ZM287.65 80.4064C288.34 81.5893 288.181 81.6495 285.94 81.0603C283.738 80.4816 283.661 80.3948 284.696 79.6638C285.673 78.9758 287.011 79.312 287.65 80.4064ZM295.571 87.0234C295.497 87.0669 295.098 86.8965 294.685 86.6439C292.648 85.4003 293.698 82.0988 296.089 82.2304L296.812 82.2695L296.26 84.6078C295.956 85.8934 295.646 86.98 295.571 87.0234ZM301.162 84.2916C301.876 85.6077 300.979 87.4811 299.503 87.7592C298.035 88.0358 298.023 87.9982 298.729 85.3136L299.364 82.8961L300.108 83.3082C300.517 83.5347 300.991 83.9767 301.162 84.2916ZM343.196 95.0395C343.739 96.1855 343.63 96.2231 341.428 95.6443C339.185 95.0549 339.077 94.9247 340.26 94.2341C341.354 93.5953 342.685 93.9606 343.196 95.0395ZM371.424 102.051C371.981 103.005 371.184 103.413 369.493 103.042L368.181 102.755L368.382 101.899L368.582 101.043L369.913 101.393C370.678 101.594 371.322 101.874 371.424 102.051ZM322.245 89.3051C322.695 89.7228 322.922 90.8209 322.718 91.5963C322.117 93.8823 318.936 94.0176 318.435 91.7785C317.901 89.3935 320.514 87.6975 322.245 89.3051ZM361.228 99.8738C362.289 101.692 360.721 103.974 358.763 103.46C356.861 102.96 356.533 100.395 358.22 99.2056C359.155 98.5456 360.646 98.8772 361.228 99.8738ZM381.447 105.166C382.57 106.794 380.9 109.278 379.016 108.783C377.191 108.303 376.686 106.302 378.018 104.827C378.912 103.835 380.648 104.007 381.447 105.166ZM370.896 105.738C370.796 106.593 370.327 106.716 368.748 106.302L367.3 105.922L367.564 105.067C367.709 104.597 367.834 104.214 367.842 104.216C369.856 104.746 370.948 105.29 370.896 105.738ZM109.236 39.0716C109.056 39.7558 109.021 39.775 108.298 39.585L107.547 39.3875L108.423 38.8578C108.905 38.5661 109.327 38.3346 109.361 38.3435C109.395 38.3524 109.339 38.6802 109.236 39.0716ZM98.1284 36.2538C98.4795 36.887 98.4895 37.0164 98.1894 37.0489C97.4707 37.1282 97.1294 36.7789 97.2423 36.0805C97.378 35.2423 97.5888 35.2839 98.1284 36.2538ZM103.066 40.2637C102.49 40.624 102.452 40.6199 102.082 40.1682C101.516 39.476 101.654 39.3605 102.715 39.6392L103.664 39.8888L103.066 40.2637ZM88.5403 77.1448C87.7859 77.6651 87.7604 77.818 88.1101 79.7266C89.1983 85.669 87.5658 91.8901 83.7027 96.5216C82.3127 98.187 82.1684 98.8607 83.0923 99.3693C84.8198 100.319 88.692 94.8128 90.1519 89.3306C91.7576 83.3 90.7429 75.624 88.5403 77.1448ZM83.5071 78.2658C82.8275 78.6625 82.7779 78.9428 83.1113 80.5038C84.1089 85.1759 82.8074 89.9571 79.5345 93.6464C78.3602 94.9699 78.8478 96.5939 80.2969 96.1872C80.9266 96.0102 82.9312 93.5394 83.8537 91.8021C86.7656 86.3193 86.5141 76.5105 83.5071 78.2658ZM78.6509 79.3798C77.9692 79.7777 77.9169 80.0754 78.2356 81.7508C78.7994 84.7095 78.0199 87.6653 76.0615 89.9965C74.983 91.2804 74.8454 91.6531 75.2323 92.2457C76.8306 94.6947 80.876 88.5161 80.8933 83.5992C80.9041 80.3481 79.9776 78.6053 78.6509 79.3798ZM73.9338 80.4372C73.3672 80.768 73.2613 81.3811 73.544 82.6915C73.8687 84.1968 73.5069 85.5699 72.4502 86.8432C70.5717 89.1065 72.0661 90.7993 74.1278 88.7446C76.8907 85.9917 76.7228 78.8092 73.9338 80.4372Z" fill="#F9F4F8"/>
<path fill-rule="evenodd" clip-rule="evenodd" d="M107.15 78.0112C105.744 78.1314 104.502 78.7566 103.6 79.798L102.718 80.817L101.277 86.0334L99.8354 91.2496L106.151 92.9096L112.468 94.5697L112.871 93.035C113.594 90.2827 114.626 89.6315 117.32 90.2284L119.151 90.6339L120.348 86.0805L121.545 81.528L114.68 79.741C110.366 78.6173 107.569 77.9755 107.15 78.0112ZM121.158 86.3046L119.953 90.8878L121.63 91.3293C124.469 92.0764 125.117 93.1491 124.394 95.9006L123.951 97.5863L130.201 99.2298L136.451 100.873L137.794 95.7649C139.282 90.1012 139.343 89.5048 138.593 87.955C137.575 85.8535 137.598 85.8647 129.511 83.6657L122.362 81.7222L121.158 86.3046ZM114.893 91.0622L114.143 91.5L113.207 95.0625C111.828 100.309 111.725 100.133 116.973 101.512L120.595 102.464L121.307 102.049C122.015 101.636 122.022 101.621 122.922 98.4639C124.528 92.8285 124.605 92.979 119.429 91.6187L115.644 90.6238L114.893 91.0622ZM98.3657 97.1106C96.9643 102.774 96.9481 103.637 98.206 105.251C99.3788 106.756 99.5177 106.811 106.988 108.775L113.906 110.593L115.028 106.323L116.15 102.052L114.524 101.651C111.742 100.963 111.089 99.8197 111.84 96.9582L112.254 95.3823L105.935 93.7215L99.6154 92.0605L98.3657 97.1106ZM123.455 99.8876C122.707 102.732 121.51 103.469 118.719 102.801L117.037 102.398L115.871 106.611L114.705 110.824L121.991 112.674C130.016 114.711 129.829 114.692 131.544 113.691C133.202 112.723 133.244 112.637 134.823 106.91L136.263 101.693L130.05 100.06L123.839 98.4271L123.455 99.8876Z" fill="#AFA3AC"/>
</g>
<defs>
<filter id="filter0_d" x="20.2758" y="40.3811" width="398.619" height="398.619" filterUnits="userSpaceOnUse" color-interpolation-filters="sRGB">
<feFlood flood-opacity="0" result="BackgroundImageFix"/>
<feColorMatrix in="SourceAlpha" type="matrix" values="0 0 0 0 0 0 0 0 0 0 0 0 0 0 0 0 0 0 127 0"/>
<feOffset/>
<feGaussianBlur stdDeviation="4"/>
<feColorMatrix type="matrix" values="0 0 0 0 0 0 0 0 0 0 0 0 0 0 0 0 0 0 0.04 0"/>
<feBlend mode="normal" in2="BackgroundImageFix" result="effect1_dropShadow"/>
<feBlend mode="normal" in="SourceGraphic" in2="effect1_dropShadow" result="shape"/>
</filter>
<filter id="filter1_d" x="-1.52588e-05" y="0" width="440.312" height="396.813" filterUnits="userSpaceOnUse" color-interpolation-filters="sRGB">
<feFlood flood-opacity="0" result="BackgroundImageFix"/>
<feColorMatrix in="SourceAlpha" type="matrix" values="0 0 0 0 0 0 0 0 0 0 0 0 0 0 0 0 0 0 127 0"/>
<feOffset dy="4"/>
<feGaussianBlur stdDeviation="12"/>
<feColorMatrix type="matrix" values="0 0 0 0 0 0 0 0 0 0 0 0 0 0 0 0 0 0 0.04 0"/>
<feBlend mode="normal" in2="BackgroundImageFix" result="effect1_dropShadow"/>
<feBlend mode="normal" in="SourceGraphic" in2="effect1_dropShadow" result="shape"/>
</filter>
<filter id="filter2_d" x="8.63828" y="-15.3179" width="415.126" height="326.841" filterUnits="userSpaceOnUse" color-interpolation-filters="sRGB">
<feFlood flood-opacity="0" result="BackgroundImageFix"/>
<feColorMatrix in="SourceAlpha" type="matrix" values="0 0 0 0 0 0 0 0 0 0 0 0 0 0 0 0 0 0 127 0"/>
<feOffset dy="4"/>
<feGaussianBlur stdDeviation="12"/>
<feColorMatrix type="matrix" values="0 0 0 0 0 0 0 0 0 0 0 0 0 0 0 0 0 0 0.08 0"/>
<feBlend mode="normal" in2="BackgroundImageFix" result="effect1_dropShadow"/>
<feBlend mode="normal" in="SourceGraphic" in2="effect1_dropShadow" result="shape"/>
</filter>
<clipPath id="clip0">
<rect width="333.724" height="210.154" fill="white" transform="translate(81.6966) rotate(14.7261)"/>
</clipPath>
</defs>
</svg>
