<svg width="205" height="191" viewBox="0 0 205 191" fill="none" xmlns="http://www.w3.org/2000/svg">
<g filter="url(#filter0_d)">
<rect width="144.511" height="90.8037" rx="20" transform="matrix(0.708733 0.705477 -0.708733 0.705476 83.2191 24.9912)" fill="white"/>
</g>
<g filter="url(#filter1_d)">
<rect width="144.671" height="90.7027" rx="20" transform="matrix(0.861957 0.506982 -0.510455 0.859904 63.2997 13)" fill="#EDA7EB"/>
</g>
<g clip-path="url(#clip0)">
<g filter="url(#filter2_d)">
<rect width="143.091" height="90.0788" rx="20" transform="matrix(0.967709 0.252078 -0.254268 0.967131 41.8564 4.27515)" fill="#C35BC0"/>
</g>
<path fill-rule="evenodd" clip-rule="evenodd" d="M51.97 19.4152L51.1434 19.8993L50.1984 19.652L49.2534 19.4048L49.0061 20.3413L48.7589 21.2775L47.9574 21.747L47.156 22.2162L47.628 23.027L48.0996 23.8378L47.8629 24.7919L47.6259 25.746L48.5843 26.023L49.5427 26.3L50.0194 27.0984L50.4958 27.8967L51.2646 27.4127L52.0331 26.9286L52.987 27.1634L53.9409 27.3981L54.2077 26.4878L54.4745 25.5775L55.3033 25.0922L56.1317 24.6067L55.6454 23.7839L55.1594 22.9613L55.4078 22.0206L55.6561 21.0799L54.7153 20.8338L53.7741 20.5875L53.2855 19.7594L52.7964 18.9314L51.97 19.4152ZM52.7793 19.9904C53.0109 20.2848 52.6689 20.3195 52.0898 20.0598C52.0152 20.0262 52.4721 19.7804 52.561 19.8062C52.6135 19.8218 52.7115 19.9045 52.7793 19.9904ZM50.2394 20.2875C50.2166 20.3742 49.6366 20.7182 49.5512 20.6959C49.4659 20.6736 49.5792 20.2011 49.6843 20.1397C49.7824 20.0827 50.2599 20.2099 50.2394 20.2875ZM53.9279 22.0099L54.4977 22.9816L54.2191 24.0367L53.9405 25.0921L53.0175 25.6536L52.0947 26.2148L50.9571 25.9171L49.8199 25.6196L49.2842 24.7117L48.7482 23.8033L49.0384 22.7042L49.3287 21.6048L50.307 21.0507L51.2851 20.4962L52.3217 20.7674L53.3583 21.0386L53.9279 22.0099ZM54.8233 21.7487C54.7789 21.9168 54.7304 22.0509 54.7158 22.0471C54.7012 22.0433 54.5915 21.8678 54.4723 21.6569L54.2556 21.2734L54.5798 21.3582C54.8918 21.4398 54.901 21.4545 54.8233 21.7487ZM134.992 43.4227L134.807 44.1211L134.56 44.0565C133.038 43.6583 131.746 44.964 132.17 46.4714C132.317 46.9962 132.895 47.541 133.462 47.6891L133.839 47.7879L133.665 48.4471L133.491 49.1063L134.002 49.212L134.513 49.3179L134.706 48.6914L134.899 48.0653L135.249 48.1568C137.587 48.7684 138.551 45.4692 136.302 44.552L135.866 44.374L136.047 43.6867L136.229 42.9997L135.703 42.8621L135.176 42.7243L134.992 43.4227ZM50.6918 22.4598C49.9508 23.226 49.3133 23.9204 49.2752 24.0027C49.2098 24.1431 49.3295 24.1848 51.2293 24.6818C52.5856 25.0366 53.2603 25.1809 53.2766 25.1192C53.3227 24.9449 52.2448 21.1208 52.142 21.094C52.0853 21.0791 51.4328 21.6936 50.6918 22.4598ZM114.624 37.6971C114.592 37.7274 114.478 37.9706 114.371 38.2379L114.175 38.7233L113.703 38.5998L113.231 38.4762L113.127 38.8689L113.023 39.2619L113.456 39.3753L113.89 39.4886L113.759 39.8046C113.461 40.5256 113.491 40.5045 112.964 40.3667L112.484 40.2409L112.38 40.6337L112.276 41.0267L112.719 41.1426L113.162 41.2585L112.964 41.7666L112.766 42.2747L113.172 42.381C113.561 42.4826 113.581 42.4764 113.645 42.2362C113.831 41.5306 113.922 41.4573 114.444 41.594L114.925 41.7196L114.725 42.2274L114.526 42.7351L114.921 42.8384L115.315 42.9416L115.515 42.4339L115.714 41.9261L116.188 42.0501L116.661 42.174L116.765 41.7809L116.869 41.3882L116.443 41.2767C115.972 41.1536 115.983 41.2233 116.314 40.473L116.452 40.159L116.93 40.2842L117.409 40.4093L117.513 40.0163L117.616 39.6236L117.175 39.5082L116.734 39.3928L116.945 38.8349L117.155 38.2775L116.762 38.204L116.37 38.1306L116.152 38.6572L115.934 39.1836L115.453 39.0576L114.971 38.9315L115.182 38.3801L115.393 37.8283L115.037 37.7352C114.841 37.684 114.655 37.6669 114.624 37.6971ZM52.6162 23.1612C52.8119 23.896 52.9625 24.5339 52.9507 24.5786C52.9384 24.6254 52.3164 24.4997 51.4821 24.2814C50.6687 24.0686 50.0442 23.8678 50.056 23.8231C50.0757 23.7486 50.4175 23.3885 51.6492 22.1456C51.9257 21.8666 52.1763 21.6802 52.206 21.7314C52.236 21.7829 52.4205 22.4263 52.6162 23.1612ZM73.1951 27.5483C72.9651 27.5411 72.6382 27.6242 72.4101 27.748L72.0199 27.9597L71.9776 27.7156C71.9075 27.31 71.6074 27.1196 70.6363 26.8655L69.755 26.635L69.6339 27.0469C69.5675 27.2733 69.4413 27.7116 69.3533 28.021L69.1936 28.5835L68.536 28.4093C67.6857 28.1839 67.6237 27.9153 68.4621 28.0887L68.9785 28.1956L69.0365 27.8658L69.095 27.5358L68.5977 27.3779C67.8132 27.1286 67.9694 26.9149 68.7811 27.1272L69.395 27.2878L69.4872 26.9384L69.5795 26.5891L66.7287 25.8432L63.8783 25.0975L63.6804 25.8161L63.4826 26.5343L63.3259 25.7233L63.169 24.9119L62.598 24.7625L62.0269 24.6131L61.7832 25.5995L61.5395 26.5859L60.8491 26.4052C60.3142 26.2653 60.1655 26.1968 60.1906 26.1018C60.2142 26.0124 60.3541 26.0112 60.7075 26.0969L61.1923 26.2149L61.3043 25.8992L61.4168 25.5833L60.9143 25.4237C60.1463 25.1798 60.2721 24.957 61.0797 25.1312L61.6788 25.2605L61.7699 24.9153L61.8612 24.5698L60.8086 24.2944L59.7559 24.019L59.5161 24.9274L59.2763 25.8355L58.9749 25.859C58.2504 25.9158 57.8469 25.5672 57.9937 25.0116C58.1081 24.578 58.5272 24.4105 59.0214 24.6001L59.3873 24.7411L59.4562 24.373L59.525 24.0053L58.9613 23.8326C57.9807 23.5323 57.3648 23.8121 57.0711 24.692C56.6676 25.8986 57.0364 26.1866 59.9817 26.9665L62.191 27.5515L62.3956 26.881L62.6 26.21L62.7709 26.9781L62.9422 27.7462L63.4913 27.8899L64.0408 28.0336L64.3059 27.0295L64.571 26.0257L65.0094 26.1404L65.4481 26.2552L65.183 27.259L64.9179 28.2631L65.4002 28.3893L65.8828 28.5155L66.1479 27.5114L66.413 26.5076L66.8047 26.6101L67.1964 26.7126L66.9619 27.701L66.7272 28.6898L68.3216 29.1325L69.9161 29.5748L70.1817 28.569C70.4627 27.5045 70.6864 27.2918 70.9443 27.8432C71.0387 28.0443 70.7322 28.2239 70.5355 28.0831C70.3906 27.9792 70.3712 28.1005 70.3957 28.9496L70.4161 29.6549L70.922 29.8157C71.3091 29.9385 71.4256 29.9471 71.4172 29.8519C71.3124 28.6699 71.3067 28.7321 71.5262 28.6454C71.7165 28.5703 71.7322 28.5926 71.7613 28.9785C71.8307 29.8901 72.1264 30.1349 73.6296 30.5256L74.7457 30.8157L75.0085 29.8203C75.2841 28.7767 75.5115 28.5557 75.7611 29.089C75.8576 29.2961 75.7212 29.4094 75.458 29.3406C75.2024 29.2737 75.1937 29.3066 75.2194 30.2116L75.2398 30.9169L75.6131 31.0438C76.2195 31.2499 76.2549 31.2202 76.1686 30.5811C76.0977 30.0601 76.1051 30.0153 76.2687 29.9525C76.3656 29.9156 76.5035 29.8572 76.5748 29.8225C76.8013 29.7131 76.8036 29.7693 76.6036 30.527L76.4076 31.2691L78.3402 31.7747C80.5032 32.3406 80.7667 32.3562 81.1967 31.9443L81.45 31.7016L81.3408 32.1165L81.2316 32.5312L81.7143 32.6574L82.1965 32.7836L82.4617 31.7795L82.7267 30.7757L83.2062 30.9012L83.6856 31.0266L83.4511 32.015L83.2168 33.0038L83.6991 33.13L84.1813 33.2562L84.4658 32.2805L84.7498 31.305L85.0976 31.396C85.4451 31.4869 85.4457 31.4863 85.5377 31.1376L85.63 30.7883L83.7883 30.3064L81.9463 29.8245L81.8364 30.2393L81.7266 30.6538L81.6294 30.3297C81.4766 29.8213 81.1952 29.628 80.2433 29.379L79.4086 29.1606L79.1245 30.1364L78.8401 31.1121L78.1823 30.94C77.3296 30.7169 77.2637 30.4377 78.1048 30.6118L78.6163 30.7175L78.7074 30.3726L78.7984 30.0278L78.2646 29.8881C77.4979 29.6875 77.6594 29.5059 78.453 29.6765L79.0451 29.804L79.1363 29.4588L79.2275 29.1132L78.1749 28.8378L77.1223 28.5624L77.0507 28.8335L76.9792 29.1045L76.7408 28.7524C76.5038 28.4025 76.4966 28.3987 75.4969 28.1372L74.4913 27.8741L74.2514 28.7826L74.0116 29.6907L73.7099 29.714C73.0161 29.7685 72.6523 29.4406 72.7972 28.8916C72.9323 28.38 73.2013 28.2551 73.7517 28.4488L74.201 28.6067L74.2404 28.2361C74.2619 28.0323 74.2767 27.8591 74.2732 27.8511C74.2333 27.764 73.5003 27.5582 73.1951 27.5483ZM51.3398 22.9139L50.5603 23.7134L51.6151 24.0157C52.1952 24.1819 52.688 24.3075 52.7101 24.2944C52.7611 24.2648 52.2572 22.2594 52.1778 22.1764C52.1455 22.1424 51.7686 22.4744 51.3398 22.9139ZM129.81 42.8059C127.828 42.7027 126.97 45.1415 128.577 46.3133C129.159 46.7379 130.503 46.8722 130.952 46.5508C131.229 46.3527 130.737 45.7208 130.37 45.8036C129.855 45.9204 129.176 45.6805 128.955 45.304C128.668 44.8142 128.704 44.8111 130.186 45.1987L131.568 45.5602L131.677 45.0935C131.942 43.9689 131.045 42.8697 129.81 42.8059ZM144.946 46.7403C142.07 46.6871 141.938 50.3993 144.808 50.6371C146.281 50.7595 147.339 49.225 146.695 47.9012C146.409 47.3135 145.562 46.7519 144.946 46.7403ZM153.891 49.0844C151.295 48.9909 150.826 52.2651 153.343 52.9085C153.924 53.0567 154.618 53.0151 154.897 52.8153C155.157 52.6285 154.668 51.9566 154.355 52.0716C153.902 52.2383 153.125 51.9543 152.885 51.5344L152.682 51.1777L154.097 51.5012L155.512 51.8246L155.617 51.3821C155.884 50.2637 155.029 49.1251 153.891 49.0844ZM161.56 51.1133C159.95 51.0253 158.894 52.699 159.726 54.0192C160.193 54.7595 161.249 55.1688 162.135 54.9517C164.367 54.4045 163.893 51.2413 161.56 51.1133ZM170.13 53.3958C168.226 53.4214 167.456 55.7836 168.989 56.8936C169.665 57.3827 170.843 57.4172 171.496 56.9673C173.13 55.8407 172.184 53.3682 170.13 53.3958ZM117.746 41.6181L117.26 43.4596L117.771 43.5656L118.282 43.6712L118.554 42.6435C118.863 41.4733 118.834 41.466 119.194 42.8126C119.51 43.9912 119.628 44.0068 120.649 43.0073L121.421 42.2523L121.14 43.3222L120.858 44.3918L121.341 44.518L121.823 44.6441L122.307 42.8109L122.791 40.9774L122.287 40.8465L121.782 40.7157L120.896 41.6022L120.011 42.4888L119.884 42.0128C119.814 41.7511 119.675 41.2217 119.576 40.8362L119.395 40.1356L118.814 39.9557L118.232 39.7762L117.746 41.6181ZM123.359 43.0863L122.875 44.9195L123.398 45.0563L123.921 45.193L124.12 44.5394L124.321 43.8855L125.092 44.0703L125.864 44.2548L125.684 44.9355L125.505 45.6163L126.044 45.7297L126.583 45.843L127.061 44.0547L127.538 42.2661L127.008 42.0995L126.477 41.9329L126.292 42.6355L126.106 43.338L125.317 43.1315L124.527 42.925L124.712 42.2266L124.896 41.5282L124.37 41.3904L123.844 41.2528L123.359 43.0863ZM138.27 46.9873L137.786 48.8205L138.292 48.9473L138.797 49.074L139.902 48.2633L141.007 47.4522L140.759 48.4929L140.51 49.5332L141.078 49.6817L141.645 49.8301L142.129 47.9969L142.613 46.1634L142.096 46.0282L141.579 45.8929L140.436 46.7214L139.294 47.5497L139.547 46.4889L139.801 45.4277L139.278 45.2908L138.754 45.1537L138.27 46.9873ZM148.335 47.7747C148.299 47.8306 148.128 48.3447 147.955 48.9172C147.606 50.0728 147.453 50.304 147.054 50.2802C146.603 50.2536 146.43 51.0444 146.85 51.2085C147.763 51.5645 148.255 51.1479 148.809 49.5501L149.074 48.787L149.631 48.9329L150.189 49.0787L149.819 50.4797L149.449 51.8807L150.004 51.9982L150.559 52.1156L151.018 50.3225L151.477 48.5291L149.938 48.1009C148.752 47.7709 148.384 47.6962 148.335 47.7747ZM156.298 49.8749C156.255 49.9354 156.197 50.12 156.17 50.2845L156.121 50.584L156.75 50.776L157.379 50.968L157.011 52.361L156.643 53.754L157.17 53.8918L157.696 54.0294L158.065 52.6326L158.434 51.2358L159.047 51.3964L159.661 51.557L159.777 51.1203L159.892 50.6839L158.135 50.2243C156.707 49.8507 156.363 49.7852 156.298 49.8749ZM164.232 53.7795L163.748 55.6127L164.998 55.938C166.649 56.3671 167.161 56.3027 167.462 55.6274C167.617 55.2806 167.527 54.7755 167.284 54.6221C167.118 54.5175 167.12 54.5115 167.419 54.3293C167.649 54.1892 167.748 54.0554 167.818 53.7906C168.014 53.0492 167.58 52.7002 165.922 52.2633L164.716 51.946L164.232 53.7795ZM52.2973 23.2382C52.4714 23.8266 52.4984 23.8003 51.8804 23.6386L51.3487 23.4995L51.7024 23.1255C52.1335 22.6702 52.1292 22.6695 52.2973 23.2382ZM80.6165 30.6946C80.6035 31.1896 80.3701 31.4657 80.0379 31.3788L79.7726 31.3094L79.9239 30.7365L80.0752 30.1635L80.3504 30.2645C80.5869 30.3515 80.6243 30.4117 80.6165 30.6946ZM48.4119 22.5915C48.2984 23.0216 48.251 23.0459 48.0682 22.7669C47.9172 22.5365 47.9401 22.4373 48.18 22.2814C48.4703 22.0928 48.5245 22.1651 48.4119 22.5915ZM55.1795 24.1286C55.2882 24.3371 55.285 24.3493 55.0873 24.4776C54.7854 24.6736 54.7233 24.6129 54.8262 24.2229C54.9293 23.8326 55.0134 23.8102 55.1795 24.1286ZM115.492 40.3511C115.247 40.9702 115.254 40.9658 114.725 40.8273L114.241 40.7007L114.4 40.2989C114.645 39.6797 114.638 39.6845 115.168 39.823L115.651 39.9495L115.492 40.3511ZM130.592 44.1312C130.89 44.6393 130.822 44.6652 129.855 44.4121C128.904 44.1635 128.871 44.1262 129.318 43.8122C129.739 43.5167 130.317 43.6611 130.592 44.1312ZM134.011 46.9735C133.979 46.9922 133.807 46.919 133.628 46.8105C132.749 46.2763 133.202 44.8582 134.234 44.9147L134.546 44.9315L134.308 45.9359C134.177 46.4881 134.043 46.9549 134.011 46.9735ZM136.423 45.8001C136.731 46.3654 136.344 47.1701 135.708 47.2896C135.074 47.4084 135.069 47.3922 135.373 46.2391L135.647 45.2006L135.969 45.3777C136.145 45.475 136.349 45.6648 136.423 45.8001ZM154.562 50.4168C154.797 50.9091 154.749 50.9252 153.799 50.6766C152.831 50.4234 152.785 50.3675 153.295 50.0709C153.768 49.7964 154.342 49.9534 154.562 50.4168ZM166.744 53.4285C166.984 53.8382 166.64 54.0138 165.91 53.8544L165.344 53.7308L165.431 53.3633L165.517 52.9957L166.092 53.146C166.421 53.2322 166.699 53.3527 166.744 53.4285ZM145.521 47.9536C145.716 48.133 145.813 48.6047 145.725 48.9378C145.466 49.9197 144.093 49.9779 143.877 49.016C143.647 47.9916 144.774 47.2631 145.521 47.9536ZM162.344 52.4933C162.802 53.2746 162.125 54.2547 161.28 54.0337C160.459 53.819 160.318 52.7173 161.046 52.2063C161.449 51.9228 162.093 52.0653 162.344 52.4933ZM171.069 54.7668C171.553 55.466 170.833 56.5329 170.02 56.3202C169.232 56.1142 169.014 55.2546 169.589 54.6209C169.975 54.1949 170.724 54.2686 171.069 54.7668ZM166.516 55.0122C166.473 55.3796 166.27 55.4326 165.589 55.2544L164.964 55.0912L165.078 54.7242C165.14 54.5223 165.194 54.3578 165.198 54.3587C166.067 54.5861 166.538 54.8199 166.516 55.0122ZM53.6015 26.3759C53.5239 26.6698 53.5087 26.6781 53.1967 26.5964L52.8725 26.5116L53.2505 26.2841C53.4585 26.1588 53.6408 26.0594 53.6554 26.0632C53.67 26.067 53.6459 26.2078 53.6015 26.3759ZM48.8081 25.1656C48.9596 25.4375 48.9639 25.4931 48.8344 25.5071C48.5243 25.5411 48.377 25.3911 48.4257 25.0911C48.4843 24.731 48.5752 24.7489 48.8081 25.1656ZM50.9386 26.888C50.6904 27.0428 50.6737 27.041 50.5143 26.847C50.27 26.5496 50.3297 26.5 50.7872 26.6197L51.1971 26.7269L50.9386 26.888ZM44.6705 42.7302C44.345 42.9537 44.334 43.0193 44.4849 43.8392C44.9545 46.3917 44.25 49.064 42.583 51.0534C41.9831 51.7688 41.9209 52.0582 42.3196 52.2766C43.065 52.6847 44.736 50.3194 45.366 47.9645C46.0589 45.3741 45.621 42.0769 44.6705 42.7302ZM42.4986 43.2117C42.2053 43.3821 42.1839 43.5025 42.3277 44.173C42.7583 46.1799 42.1966 48.2337 40.7842 49.8184C40.2775 50.3869 40.4879 51.0845 41.1133 50.9098C41.385 50.8338 42.2501 49.7724 42.6481 49.0262C43.9047 46.671 43.7962 42.4577 42.4986 43.2117ZM40.403 43.6902C40.1088 43.8611 40.0862 43.989 40.2238 44.7087C40.4671 45.9795 40.1307 47.2492 39.2856 48.2506C38.8202 48.8021 38.7608 48.9622 38.9277 49.2167C39.6174 50.2687 41.3632 47.6147 41.3706 45.5026C41.3753 44.1062 40.9755 43.3575 40.403 43.6902ZM38.3674 44.1444C38.1229 44.2865 38.0772 44.5498 38.1992 45.1128C38.3393 45.7593 38.1832 46.3492 37.7272 46.8961C36.9166 47.8683 37.5614 48.5954 38.4511 47.7128C39.6434 46.5303 39.5709 43.4451 38.3674 44.1444Z" fill="#F9F4F8"/>
<path fill-rule="evenodd" clip-rule="evenodd" d="M57.3743 44.3916C56.7257 44.4468 56.1531 44.7338 55.7373 45.2118L55.3305 45.6795L54.6661 48.0739L54.0013 50.4682L56.9136 51.2301L59.8263 51.9921L60.0123 51.2877C60.3459 50.0243 60.8214 49.7255 62.0637 49.9994L62.9084 50.1856L63.4603 48.0955L64.012 46.0059L60.8466 45.1856C58.857 44.6699 57.5676 44.3753 57.3743 44.3916ZM63.8337 48.1984L63.2782 50.3021L64.0513 50.5048C65.3606 50.8477 65.6594 51.34 65.3259 52.603L65.1216 53.3767L68.0037 54.1312L70.8858 54.8856L71.5049 52.5407C72.1913 49.9411 72.2195 49.6673 71.8735 48.9559C71.4042 47.9913 71.4148 47.9965 67.6855 46.9871L64.3891 46.095L63.8337 48.1984ZM60.9447 50.3822L60.5989 50.5831L60.1671 52.2183C59.5312 54.6265 59.4838 54.5456 61.9038 55.1787L63.5741 55.6157L63.9025 55.4252C64.229 55.2355 64.232 55.2287 64.6469 53.7796C65.3876 51.1929 65.423 51.262 63.0365 50.6376L61.291 50.1809L60.9447 50.3822ZM53.3235 53.1584C52.6773 55.7579 52.6698 56.1539 53.2499 56.8948C53.7907 57.5855 53.8548 57.611 57.2995 58.5122L60.4894 59.3468L61.007 57.3868L61.5245 55.4267L60.7744 55.2424C59.4918 54.9266 59.1904 54.4019 59.5368 53.0885L59.7278 52.3651L56.814 51.6028L53.8998 50.8404L53.3235 53.1584ZM64.8928 54.4331C64.5481 55.7387 63.9961 56.0769 62.7091 55.7703L61.9333 55.5856L61.3957 57.519L60.858 59.4527L64.2179 60.3021C67.9182 61.2373 67.8323 61.2283 68.6231 60.7688C69.3876 60.3245 69.4067 60.2852 70.135 57.6565L70.7988 55.2616L67.9341 54.5121L65.0698 53.7627L64.8928 54.4331Z" fill="#AFA3AC"/>
</g>
<defs>
<filter id="filter0_d" x="19.1669" y="25.2563" width="166.169" height="165.478" filterUnits="userSpaceOnUse" color-interpolation-filters="sRGB">
<feFlood flood-opacity="0" result="BackgroundImageFix"/>
<feColorMatrix in="SourceAlpha" type="matrix" values="0 0 0 0 0 0 0 0 0 0 0 0 0 0 0 0 0 0 127 0"/>
<feOffset/>
<feGaussianBlur stdDeviation="4"/>
<feColorMatrix type="matrix" values="0 0 0 0 0 0 0 0 0 0 0 0 0 0 0 0 0 0 0.04 0"/>
<feBlend mode="normal" in2="BackgroundImageFix" result="effect1_dropShadow"/>
<feBlend mode="normal" in="SourceGraphic" in2="effect1_dropShadow" result="shape"/>
</filter>
<filter id="filter1_d" x="0.40979" y="0.369873" width="204.18" height="184.601" filterUnits="userSpaceOnUse" color-interpolation-filters="sRGB">
<feFlood flood-opacity="0" result="BackgroundImageFix"/>
<feColorMatrix in="SourceAlpha" type="matrix" values="0 0 0 0 0 0 0 0 0 0 0 0 0 0 0 0 0 0 127 0"/>
<feOffset dy="4"/>
<feGaussianBlur stdDeviation="12"/>
<feColorMatrix type="matrix" values="0 0 0 0 0 0 0 0 0 0 0 0 0 0 0 0 0 0 0.04 0"/>
<feBlend mode="normal" in2="BackgroundImageFix" result="effect1_dropShadow"/>
<feBlend mode="normal" in="SourceGraphic" in2="effect1_dropShadow" result="shape"/>
</filter>
<filter id="filter2_d" x="-0.624146" y="-11.3345" width="200.528" height="162.407" filterUnits="userSpaceOnUse" color-interpolation-filters="sRGB">
<feFlood flood-opacity="0" result="BackgroundImageFix"/>
<feColorMatrix in="SourceAlpha" type="matrix" values="0 0 0 0 0 0 0 0 0 0 0 0 0 0 0 0 0 0 127 0"/>
<feOffset dy="4"/>
<feGaussianBlur stdDeviation="12"/>
<feColorMatrix type="matrix" values="0 0 0 0 0 0 0 0 0 0 0 0 0 0 0 0 0 0 0.08 0"/>
<feBlend mode="normal" in2="BackgroundImageFix" result="effect1_dropShadow"/>
<feBlend mode="normal" in="SourceGraphic" in2="effect1_dropShadow" result="shape"/>
</filter>
<clipPath id="clip0">
<rect width="145.42" height="91.2078" fill="white" transform="matrix(0.967439 0.253106 -0.255296 0.966863 42.1487 4)"/>
</clipPath>
</defs>
</svg>
